<svg width="562" height="562" viewBox="0 0 562 562" fill="none" xmlns="http://www.w3.org/2000/svg">
<rect width="562" height="562" rx="73.6402" fill="#FF6D38"/>
<path fill-rule="evenodd" clip-rule="evenodd" d="M354.81 425.304C355.922 426.826 357.034 428.348 358.141 429.869L358.129 429.875C358.171 429.927 358.213 429.985 358.236 430.047C358.35 430.314 358.219 430.518 357.896 430.575C357.648 430.618 357.397 430.612 357.147 430.606C357.06 430.604 356.972 430.602 356.885 430.602C356.721 430.602 356.558 430.6 356.395 430.599C356.068 430.597 355.741 430.595 355.414 430.602C354.917 430.607 354.559 430.45 354.295 430.073C353.73 429.252 353.148 428.435 352.567 427.618C352.442 427.441 352.316 427.264 352.19 427.088C351.892 426.664 351.592 426.24 351.305 425.817C351.21 425.676 351.09 425.629 350.893 425.629C350.109 425.644 349.332 425.649 348.548 425.644C348.351 425.644 348.303 425.691 348.303 425.853C348.309 427.156 348.309 428.463 348.309 429.765C348.309 430.455 348.142 430.596 347.34 430.596H345.522C345.188 430.596 344.96 430.445 344.918 430.162C344.868 429.855 344.879 429.544 344.891 429.235C344.896 429.103 344.9 428.971 344.9 428.839V417.994C344.9 417.858 344.906 417.717 344.93 417.581C344.972 417.356 345.17 417.215 345.427 417.215H350.39C350.603 417.216 350.816 417.215 351.028 417.215C351.736 417.213 352.443 417.212 353.147 417.272C354.672 417.408 355.988 417.91 356.909 418.987C357.632 419.829 357.86 420.807 357.716 421.853C357.531 423.207 356.753 424.217 355.378 424.886C355.273 424.937 355.156 424.976 355.04 425.014C354.991 425.031 354.942 425.047 354.894 425.064C354.762 425.116 354.714 425.174 354.81 425.304ZM352.047 423.244C352.711 423.218 353.273 423.024 353.739 422.601L353.745 422.596C354.523 421.884 354.325 420.65 353.369 420.138C352.842 419.856 352.268 419.824 351.688 419.819C350.97 419.812 350.255 419.814 349.541 419.817C349.184 419.818 348.827 419.819 348.471 419.819C348.327 419.819 348.315 419.882 348.315 419.981V423.066C348.315 423.187 348.345 423.249 348.507 423.249C348.927 423.247 349.349 423.252 349.77 423.257C350.529 423.266 351.289 423.274 352.047 423.244Z" fill="black"/>
<path fill-rule="evenodd" clip-rule="evenodd" d="M334.165 423.912C334.165 414.296 341.963 406.498 351.579 406.498C361.195 406.498 368.993 414.296 368.993 423.912C368.993 433.528 361.195 441.327 351.579 441.327C341.963 441.327 334.165 433.528 334.165 423.912ZM337.647 423.912C337.647 431.596 343.895 437.844 351.579 437.844C359.263 437.844 365.51 431.596 365.51 423.912C365.51 416.228 359.263 409.981 351.579 409.981C343.895 409.981 337.647 416.228 337.647 423.912Z" fill="black"/>
<path d="M412.371 182.616L355.696 122.36C353.264 119.776 349.405 119.096 346.232 120.7L272.287 158.012C268.34 160.004 266.761 164.801 268.763 168.729L281.791 194.344C283.792 198.272 288.608 199.845 292.555 197.853L312.815 187.634L293.687 290.505C293.424 291.912 291.574 292.291 290.777 291.098L231.878 203.117C226.089 194.471 215.62 190.179 205.398 192.273C195.177 194.36 187.251 202.414 185.353 212.633L146.762 420.152C145.957 424.483 148.827 428.648 153.181 429.447L187.833 435.84C192.187 436.639 196.365 433.778 197.17 429.447L223.546 287.628C223.809 286.221 225.659 285.842 226.456 287.035L285.355 375.016C291.144 383.662 301.613 387.954 311.835 385.859C322.057 383.773 329.982 375.719 331.88 365.5L363.414 195.901L379.64 213.154C382.662 216.371 387.733 216.537 390.962 213.526L412.004 193.894C415.233 190.882 415.401 185.832 412.371 182.616Z" fill="black"/>
</svg>
